<?xml version="1.0" encoding="utf-8"?>
<svg xmlns="http://www.w3.org/2000/svg" viewBox="0 0 500 500">
  <defs>
    <clipPath id="a">
      <path fill="#fff" d="M0 0h40v41H0z"/>
    </clipPath>
  </defs>
  <g clip-path="url(#a)" transform="matrix(2.065188, 0, 0, 2.69795, 16.168312, 153.243301)" style="">
    <path fill="#C7231A" fill-rule="evenodd" d="M13.715.516c-2.257 0-4.42.896-6.016 2.492L0 10.707v3.524c0 2.49 1.07 4.73 2.774 6.285A8.485 8.485 0 0 0 0 26.802v3.524l7.699 7.698A8.507 8.507 0 0 0 20 37.742a8.508 8.508 0 0 0 12.301.282L40 30.326v-3.524c0-2.49-1.07-4.73-2.774-6.286A8.485 8.485 0 0 0 40 14.231v-3.524l-7.699-7.7A8.508 8.508 0 0 0 20 3.29 8.485 8.485 0 0 0 13.715.516Zm12.044 20a8.528 8.528 0 0 1-.282-.27L20 14.77l-5.477 5.477a8.528 8.528 0 0 1-.282.27c.096.087.19.177.282.269L20 26.262l5.477-5.476c.092-.093.186-.182.282-.27Zm-3.537 9.81v1.682a4.063 4.063 0 0 0 6.936 2.874l6.398-6.397v-1.683a4.063 4.063 0 0 0-6.937-2.874l-6.397 6.398Zm-4.444 0-6.397-6.398a4.063 4.063 0 0 0-6.937 2.873v1.684l6.397 6.397a4.063 4.063 0 0 0 6.937-2.873v-1.683Zm0-21.302v1.683l-6.397 6.397a4.063 4.063 0 0 1-6.937-2.873v-1.683l6.397-6.397a4.063 4.063 0 0 1 6.937 2.873Zm10.841 8.08-6.397-6.397V9.024a4.063 4.063 0 0 1 6.936-2.873l6.398 6.397v1.683a4.063 4.063 0 0 1-6.937 2.873Z" clip-rule="evenodd"/>
  </g>
  <path d="M 116.469 258.52 L 116.469 157.847 L 149.699 157.847 L 149.699 176.4 L 126.748 176.4 L 126.748 197.972 L 146.193 197.972 L 146.193 215.158 L 126.748 215.158 L 126.748 239.752 L 149.977 239.752 L 149.977 258.52 L 116.469 258.52 Z" style="stroke-width: 1; fill: rgb(255, 255, 255);"/>
  <path d="M 458.524 260.606 C 455.398 260.606 452.517 259.767 449.878 258.089 C 447.238 256.363 444.981 254.014 443.106 251.042 L 446.404 236.372 C 448.24 238.967 450.236 241.022 452.343 242.484 C 454.473 243.923 456.521 244.642 458.489 244.642 C 460.433 244.642 461.927 244.043 462.968 242.844 C 464.034 241.597 464.565 239.824 464.565 237.523 C 464.565 235.461 464.091 233.952 463.142 232.992 C 462.216 231.986 460.41 230.907 457.725 229.756 C 453.095 228.031 449.716 225.322 447.586 221.631 C 445.455 217.892 444.391 212.762 444.391 206.242 C 444.391 201.639 445.005 197.589 446.232 194.089 C 447.481 190.59 449.194 187.881 451.37 185.964 C 453.547 183.998 456.046 183.015 458.87 183.015 C 461.649 183.015 464.265 183.806 466.718 185.388 C 469.196 186.922 471.313 189.079 473.073 191.86 L 469.879 206.601 C 468.897 204.995 467.823 203.647 466.684 202.574 C 465.483 201.412 464.227 200.519 462.934 199.914 C 461.686 199.255 460.402 198.92 459.114 198.907 C 457.424 198.907 456.058 199.506 455.016 200.705 C 453.975 201.855 453.454 203.486 453.454 205.595 C 453.454 207.704 453.929 209.263 454.878 210.269 C 455.827 211.275 457.598 212.378 460.191 213.577 C 465.028 215.687 468.466 218.491 470.504 221.99 C 472.564 225.442 473.594 230.308 473.594 236.588 C 473.594 241.43 472.958 245.649 471.684 249.244 C 470.434 252.839 468.675 255.644 466.406 257.657 C 464.161 259.623 461.533 260.606 458.524 260.606 Z" style="stroke-width: 1; fill: rgb(255, 255, 255);"/>
  <path d="M 402.702 258.52 L 402.702 218.874 C 403.665 218.713 403.738 218.293 402.702 217.585 L 402.702 185.892 L 412.841 185.892 L 412.841 194.089 C 414.184 190.446 415.769 187.809 417.599 186.179 C 419.433 184.555 421.404 183.728 423.398 183.734 C 426.662 183.734 429.347 185.077 431.454 187.761 C 433.583 190.398 435.157 193.825 436.176 198.044 C 437.217 202.263 437.739 206.698 437.739 211.347 L 437.739 258.52 L 427.599 258.52 L 427.599 217.892 C 427.599 213.289 426.974 209.622 425.724 206.889 C 424.497 204.157 422.715 202.79 420.377 202.79 C 418.895 202.79 417.587 203.486 416.453 204.876 C 415.319 206.218 414.427 208.112 413.779 210.556 C 413.154 213.002 412.841 215.83 412.841 219.042 L 412.841 258.52 L 402.702 258.52 Z" style="stroke-width: 1; fill: rgb(255, 255, 255);"/>
  <path d="M 402.702 218.874 L 402.702 217.585 C 403.738 218.293 403.665 218.713 402.702 218.874 Z" style="stroke-width: 1; fill: rgb(255, 255, 255);"/>
  <path d="M 377.851 260.678 C 374.078 260.678 370.733 258.928 367.816 255.429 C 364.98 252.09 362.61 247.285 360.941 241.478 C 359.297 235.63 358.446 228.971 358.475 222.206 C 358.475 217.61 358.857 213.229 359.618 209.058 C 362.932 210.185 366.238 211.228 369.471 212.181 C 368.809 215.039 368.476 218.383 368.476 222.206 C 368.476 226.377 368.88 229.972 369.691 232.992 C 370.502 236.013 371.612 238.362 373.024 240.04 C 374.437 241.669 376.046 242.484 377.851 242.484 C 379.634 242.484 381.231 241.669 382.643 240.04 C 384.055 238.362 385.166 236.013 385.977 232.992 C 386.786 229.924 387.192 226.329 387.192 222.206 C 387.192 220.24 387.102 218.401 386.923 216.692 C 390.907 217.562 394.389 218.197 397.117 218.569 C 397.169 219.761 397.195 220.971 397.195 222.206 C 397.195 227.287 396.721 232.153 395.772 236.804 C 394.831 241.43 393.463 245.63 391.744 249.172 C 389.99 252.774 387.915 255.632 385.632 257.585 C 383.271 259.647 380.678 260.678 377.854 260.678 L 377.851 260.678 Z" style="stroke-width: 1; fill: rgb(255, 255, 255);"/>
  <path d="M 385.977 211.419 C 385.951 211.318 385.925 211.216 385.899 211.114 C 390.543 212.594 394.16 213.852 396.872 214.889 C 396.981 216.093 397.062 217.316 397.117 218.563 C 394.391 218.191 390.907 217.556 386.923 216.687 C 386.72 214.769 386.405 213.014 385.977 211.413 L 385.977 211.419 Z" style="stroke-width: 1; fill: rgb(255, 255, 255);"/>
  <path d="M 359.898 207.608 C 359.924 207.483 359.951 207.357 359.977 207.225 C 363.73 207.147 367.517 206.847 371.204 207.189 C 370.603 208.399 370.088 209.813 369.657 211.419 C 369.592 211.671 369.529 211.923 369.471 212.181 C 366.242 211.228 362.932 210.185 359.618 209.058 C 359.708 208.573 359.8 208.088 359.898 207.608 Z" style="stroke-width: 1; fill: rgb(255, 255, 255);"/>
  <path d="M 363.926 195.312 C 365.663 191.716 367.712 188.888 370.073 186.827 C 372.434 184.765 375.027 183.734 377.851 183.734 C 381.624 183.734 384.958 185.484 387.852 188.984 C 390.691 192.322 393.052 197.164 394.693 203.006 C 395.76 206.722 396.487 210.683 396.868 214.895 C 394.157 213.852 390.54 212.6 385.896 211.12 C 385.147 208.321 384.032 206.002 382.675 204.451 C 381.263 202.773 379.653 201.933 377.848 201.933 C 376.043 201.933 374.422 202.773 372.987 204.451 C 372.324 205.211 371.731 206.128 371.202 207.195 C 367.517 206.853 363.728 207.153 359.974 207.231 C 360.909 202.773 362.249 198.721 363.924 195.318 L 363.926 195.312 Z" style="stroke-width: 1; fill: rgb(255, 255, 255);"/>
  <path d="M 347.867 174.386 C 346.267 174.452 344.71 173.302 343.492 171.15 C 342.265 168.945 341.651 166.021 341.651 162.377 C 341.651 158.685 342.265 155.761 343.492 153.604 C 344.701 151.411 346.261 150.23 347.867 150.296 C 349.473 150.23 351.033 151.411 352.242 153.604 C 353.469 155.761 354.083 158.685 354.083 162.377 C 354.083 166.021 353.469 168.945 352.242 171.15 C 351.024 173.302 349.467 174.452 347.867 174.386 Z" style="stroke-width: 1; fill: rgb(255, 255, 255);"/>
  <path d="M 342.798 258.52 L 342.798 203.773 C 344.475 204.252 346.16 204.834 347.853 205.535 C 349.507 206.224 351.21 206.643 352.937 206.901 L 352.937 258.52 L 342.798 258.52 Z" style="stroke-width: 1; fill: rgb(255, 255, 255);"/>
  <path d="M 347.853 205.535 C 346.16 204.834 344.475 204.252 342.798 203.773 L 342.798 202.557 C 346.07 204.007 349.479 205.379 352.937 206.673 L 352.937 206.895 C 351.21 206.637 349.507 206.218 347.853 205.529 L 347.853 205.535 Z" style="stroke-width: 1; fill: rgb(255, 255, 255);"/>
  <path d="M 342.798 185.892 L 352.937 185.892 L 352.937 206.679 C 349.479 205.385 346.07 204.013 342.798 202.562 L 342.798 185.892 Z" style="stroke-width: 1; fill: rgb(255, 255, 255);"/>
  <path d="M 321.346 260.606 C 318.222 260.606 315.339 259.767 312.7 258.089 C 310.062 256.363 307.805 254.014 305.928 251.042 L 309.228 236.372 C 311.063 238.967 313.059 241.022 315.166 242.484 C 317.296 243.923 319.344 244.642 321.312 244.642 C 323.256 244.642 324.749 244.043 325.791 242.844 C 326.856 241.597 327.388 239.824 327.388 237.523 C 327.388 235.461 326.914 233.952 325.965 232.992 C 325.038 231.986 323.233 230.907 320.547 229.756 C 315.918 228.031 312.538 225.322 310.408 221.631 C 308.279 217.892 307.214 212.762 307.214 206.242 C 307.214 205.056 307.254 203.911 307.335 202.796 C 310.559 202.623 313.742 202.371 316.904 202.155 C 316.485 203.108 316.277 204.252 316.277 205.589 C 316.277 207.698 316.751 209.256 317.7 210.263 C 318.649 211.269 320.42 212.372 323.013 213.571 C 327.851 215.68 331.289 218.484 333.326 221.984 C 335.387 225.436 336.417 230.302 336.417 236.582 C 336.417 241.424 335.78 245.643 334.506 249.238 C 333.257 252.833 331.497 255.638 329.229 257.651 C 326.983 259.617 324.356 260.6 321.346 260.6 L 321.346 260.606 Z" style="stroke-width: 1; fill: rgb(255, 255, 255);"/>
  <path d="M 309.054 194.089 C 310.304 190.59 312.017 187.881 314.194 185.964 C 314.957 185.274 315.762 184.705 316.607 184.256 C 319.743 189.373 326.291 194.197 334.452 198.524 L 333.682 202.077 C 331.998 201.916 330.317 201.819 328.633 201.783 C 327.701 200.998 326.74 200.376 325.756 199.914 C 324.509 199.255 323.225 198.92 321.936 198.907 C 320.247 198.907 318.881 199.506 317.84 200.705 C 317.457 201.125 317.148 201.61 316.904 202.161 C 313.742 202.371 310.559 202.623 307.335 202.803 C 307.569 199.597 308.143 196.69 309.054 194.095 L 309.054 194.089 Z" style="stroke-width: 1; fill: rgb(255, 255, 255);"/>
  <path d="M 332.701 206.601 C 331.72 204.995 330.647 203.647 329.507 202.574 C 329.217 202.293 328.928 202.029 328.633 201.783 C 330.317 201.819 331.998 201.916 333.682 202.077 L 332.701 206.601 Z" style="stroke-width: 1; fill: rgb(255, 255, 255);"/>
  <path d="M 321.694 183.015 C 324.471 183.015 327.087 183.806 329.541 185.388 C 332.019 186.922 334.136 189.079 335.896 191.86 L 334.452 198.53 C 326.291 194.197 319.746 189.373 316.607 184.261 C 318.167 183.435 319.862 183.021 321.694 183.021 L 321.694 183.015 Z" style="stroke-width: 1; fill: rgb(255, 255, 255);"/>
  <path d="M 265.528 258.52 L 265.528 185.892 L 275.667 185.892 L 275.667 194.089 C 277.01 190.446 278.595 187.809 280.424 186.179 C 282.259 184.555 284.23 183.728 286.223 183.734 C 289.488 183.734 292.172 185.077 294.279 187.761 C 296.408 190.398 297.983 193.825 299.001 198.044 C 300.043 202.263 300.564 206.698 300.564 211.347 L 300.564 258.52 L 290.425 258.52 L 290.425 217.892 C 290.425 213.289 289.8 209.622 288.55 206.889 C 287.323 204.157 285.541 202.79 283.203 202.79 C 281.721 202.79 280.413 203.486 279.279 204.876 C 278.144 206.218 277.253 208.112 276.604 210.556 C 275.98 213.002 275.667 215.83 275.667 219.042 L 275.667 258.52 L 265.528 258.52 Z" style="stroke-width: 1; fill: rgb(255, 255, 255);"/>
  <path d="M 242.601 260.678 C 238.781 260.678 235.425 259.072 232.531 255.86 C 229.707 252.786 227.36 248.123 225.76 242.412 C 224.139 236.66 223.33 229.924 223.33 222.206 C 223.33 216.597 223.793 211.444 224.718 206.745 C 225.624 202.179 226.973 198.044 228.677 194.593 C 230.401 191.129 232.444 188.414 234.684 186.611 C 236.998 184.693 239.534 183.734 242.289 183.734 C 245.321 183.734 248.007 184.837 250.345 187.042 C 252.631 189.127 254.641 192.303 256.212 196.318 C 257.764 200.249 258.84 204.876 259.442 210.197 C 260.068 215.518 260.125 221.295 259.616 227.528 L 232.739 227.528 C 232.739 230.883 233.156 233.808 233.989 236.301 C 234.846 238.793 236.038 240.759 237.567 242.197 C 239.117 243.587 240.922 244.282 242.983 244.282 C 245.02 244.282 246.965 243.707 248.817 242.556 C 250.686 241.388 252.457 239.614 254.06 237.307 L 257.428 251.689 C 256.318 253.463 254.928 255.044 253.261 256.435 C 251.594 257.778 249.823 258.808 247.948 259.527 C 246.189 260.276 244.398 260.66 242.601 260.678 Z M 233.329 213.074 L 249.893 213.074 C 249.823 208.807 249.094 205.427 247.706 202.934 C 246.34 200.441 244.453 199.195 242.045 199.195 C 239.638 199.195 237.635 200.441 236.038 202.934 C 234.464 205.427 233.561 208.807 233.329 213.074 Z" style="stroke-width: 1; fill: rgb(255, 255, 255);"/>
  <path d="M 193.044 202.718 L 193.044 185.892 L 201.17 185.892 L 201.17 202.718 L 193.041 202.718 L 193.044 202.718 Z" style="stroke-width: 1; fill: rgb(255, 255, 255);"/>
  <path d="M 212.281 260.678 C 208.531 260.678 205.568 258.497 203.391 254.134 C 201.24 249.724 200.163 243.084 200.163 234.215 L 200.163 164.965 L 210.302 164.965 L 210.302 185.892 L 219.018 185.892 L 219.018 202.718 L 210.302 202.718 L 210.302 230.404 C 210.302 234.67 210.73 237.667 211.587 239.392 C 212.443 241.119 213.589 241.981 215.025 241.981 C 215.765 241.981 216.483 241.813 217.178 241.478 C 217.895 241.094 218.554 240.567 219.157 239.896 L 220.58 256.435 C 219.539 257.634 218.288 258.641 216.83 259.456 C 215.349 260.282 213.818 260.696 212.281 260.678 Z" style="stroke-width: 1; fill: rgb(255, 255, 255);"/>
  <path d="M 153.56 258.664 L 166.2 222.494 L 154.22 185.892 L 167.033 185.892 L 173.248 207.968 L 179.291 185.892 L 191.791 185.892 L 180.159 222.062 L 192.694 258.52 L 179.707 258.52 L 172.901 236.372 L 165.991 258.305 L 153.56 258.664 Z" style="stroke-width: 1; fill: rgb(255, 255, 255);"/>
</svg>